<?xml version="1.0" encoding="UTF-8" standalone="no"?>
<svg
   xmlns:dc="http://purl.org/dc/elements/1.1/"
   xmlns:cc="http://creativecommons.org/ns#"
   xmlns:rdf="http://www.w3.org/1999/02/22-rdf-syntax-ns#"
   xmlns:svg="http://www.w3.org/2000/svg"
   xmlns="http://www.w3.org/2000/svg"
   xmlns:sodipodi="http://sodipodi.sourceforge.net/DTD/sodipodi-0.dtd"
   xmlns:inkscape="http://www.inkscape.org/namespaces/inkscape"
   version="1.1"
   id="svg2"
   xml:space="preserve"
   width="1133.8533"
   height="1133.8533"
   viewBox="0 0 1133.8533 1133.8533"
   sodipodi:docname="logo 5B color.ai"><metadata
     id="metadata8"><rdf:RDF><cc:Work
         rdf:about=""><dc:format>image/svg+xml</dc:format><dc:type
           rdf:resource="http://purl.org/dc/dcmitype/StillImage" /></cc:Work></rdf:RDF></metadata><defs
     id="defs6"><clipPath
       clipPathUnits="userSpaceOnUse"
       id="clipPath18"><path
         d="M 0,850.39 H 850.39 V 0 H 0 Z"
         id="path16" /></clipPath></defs><sodipodi:namedview
     pagecolor="#ffffff"
     bordercolor="#666666"
     borderopacity="1"
     objecttolerance="10"
     gridtolerance="10"
     guidetolerance="10"
     inkscape:pageopacity="0"
     inkscape:pageshadow="2"
     inkscape:window-width="640"
     inkscape:window-height="480"
     id="namedview4" /><g
     id="g10"
     inkscape:groupmode="layer"
     inkscape:label="logo 5B color"
     transform="matrix(1.3333333,0,0,-1.3333333,0,1133.8533)"><g
       id="g12"><g
         id="g14"
         clip-path="url(#clipPath18)"><g
           id="g20"
           transform="translate(150.1093,201.5602)"><path
             d="m 0,0 c 0,-27.648 -22.413,-50.06 -50.06,-50.06 -27.648,0 -50.061,22.412 -50.061,50.06 0,27.648 22.413,50.06 50.061,50.06 C -22.413,50.06 0,27.648 0,0"
             style="fill:#f89a1c;fill-opacity:1;fill-rule:nonzero;stroke:none"
             id="path22" /></g><g
           id="g24"
           transform="translate(88.0982,182.7627)"><path
             d="m 0,0 h 13.269 c 3.232,0 5.742,0.622 7.528,1.871 1.786,1.247 2.679,3.032 2.679,5.358 0,2.155 -0.893,3.857 -2.679,5.104 -1.786,1.247 -4.296,1.871 -7.528,1.871 L 0,14.204 Z m 0,24.581 h 13.269 c 2.552,0 4.551,0.581 5.997,1.744 1.446,1.162 2.169,2.792 2.169,4.891 0,2.041 -0.723,3.615 -2.169,4.721 -1.446,1.106 -3.445,1.658 -5.997,1.658 H 0 Z m 13.95,23.987 c 3.288,0 6.237,-0.341 8.846,-1.021 2.607,-0.681 4.833,-1.673 6.677,-2.977 1.842,-1.305 3.26,-2.879 4.253,-4.72 0.991,-1.844 1.488,-3.9 1.488,-6.167 0,-3.232 -0.908,-6.026 -2.722,-8.378 -1.815,-2.355 -4.337,-3.928 -7.57,-4.722 3.856,-0.737 6.89,-2.453 9.102,-5.145 2.211,-2.695 3.317,-5.997 3.317,-9.909 0,-5.161 -1.999,-9.202 -5.997,-12.121 -3.998,-2.922 -9.484,-4.381 -16.459,-4.381 h -28.324 v 59.541 z"
             style="fill:#373538;fill-opacity:1;fill-rule:nonzero;stroke:none"
             id="path26" /></g><g
           id="g28"
           transform="translate(341.09,547.1133)"><path
             d="m 0,0 c -6.779,1.538 -28.725,2.31 -65.839,2.31 h -72.77 l -7.624,-80.855 c 18.171,12.626 41.966,18.943 71.384,18.943 20.481,0 37.616,-3.274 51.401,-9.818 13.781,-6.548 24.026,-15.442 30.725,-26.682 6.699,-11.244 10.049,-24.026 10.049,-38.349 0,-23.412 -9.125,-44.124 -27.375,-62.143 -18.25,-18.019 -41.854,-31.956 -70.806,-41.813 -28.957,-9.855 -58.678,-14.785 -89.172,-14.785 v 8.547 c 20.019,0.155 38.962,4.505 56.83,13.053 17.864,8.547 32.342,20.906 43.431,37.077 11.088,16.172 16.633,35.266 16.633,57.292 0,19.712 -4.66,34.883 -13.977,45.51 -9.32,10.627 -22.755,15.94 -40.312,15.94 -8.627,0 -16.171,-1.119 -22.639,-3.35 -6.469,-2.234 -13.168,-5.659 -20.099,-10.28 l -6.468,4.159 15.016,148.08 c 6.313,-1.234 14.861,-1.848 25.642,-1.848 h 78.084 c 9.085,0 15.438,1.307 19.058,3.927 3.617,2.617 5.891,7.469 6.815,14.554 h 9.934 C -2.079,44.355 -1.386,17.864 0,0"
             style="fill:#373538;fill-opacity:1;fill-rule:nonzero;stroke:none"
             id="path30" /></g><g
           id="g32"
           transform="translate(503.3785,388.8681)"><path
             d="m 0,0 c 1.617,-5.393 4.656,-9.089 9.125,-11.089 4.465,-2.003 11.471,-3.003 21.023,-3.003 43.892,0 65.839,27.642 65.839,82.934 0,24.795 -6.277,43.662 -18.828,56.599 -12.554,12.937 -32.458,19.405 -59.717,19.405 H -2.426 V 25.181 C -2.426,13.781 -1.617,5.389 0,0 m 60.988,173.954 c 8.237,14.013 12.359,32.725 12.359,56.137 0,23.715 -3.696,41.388 -11.089,53.018 -7.392,11.626 -19.174,17.442 -35.345,17.442 -8.471,0 -14.749,-1.12 -18.827,-3.35 -4.083,-2.235 -6.855,-6.162 -8.317,-11.782 -1.466,-5.624 -2.195,-14.132 -2.195,-25.527 v -106.96 h 20.33 c 20.481,0 34.843,7.006 43.084,21.022 m 63.067,-38.464 c 17.788,-8.24 30.646,-18.329 38.58,-30.263 7.93,-11.937 11.897,-24.758 11.897,-38.464 0,-19.56 -5.238,-36.233 -15.709,-50.014 C 148.348,2.963 133.332,-7.432 113.775,-14.439 94.214,-21.448 70.958,-24.95 44.008,-24.95 c -6.779,0 -18.365,0.231 -34.768,0.693 -16.401,0.462 -32.919,0.693 -49.552,0.693 -32.497,0 -56.754,-0.462 -72.77,-1.386 v 9.472 c 10.471,0.462 18.095,1.693 22.87,3.696 4.772,2 8.046,5.696 9.818,11.089 1.769,5.389 2.657,14.012 2.657,25.874 v 234.711 c 0,11.857 -0.888,20.481 -2.657,25.874 -1.772,5.389 -5.046,9.085 -9.818,11.088 -4.775,2 -12.399,3.235 -22.87,3.697 v 9.471 c 15.86,-0.924 39.81,-1.386 71.846,-1.386 12.626,0 26.642,0.152 42.045,0.462 15.398,0.307 26.104,0.462 32.111,0.462 25.411,0 46.856,-3.119 64.337,-9.356 17.478,-6.237 30.61,-14.94 39.388,-26.105 8.779,-11.168 13.168,-24.141 13.168,-38.926 0,-11.706 -3.389,-23.181 -10.165,-34.421 -6.778,-11.244 -17.289,-21.217 -31.533,-29.916 -14.247,-8.703 -31.844,-14.98 -52.787,-18.828 v -0.924 c 28.029,-2.159 50.939,-7.357 68.727,-15.594"
             style="fill:#f89a1c;fill-opacity:1;fill-rule:nonzero;stroke:none"
             id="path34" /></g><g
           id="g36"
           transform="translate(187.7335,198.4133)"><path
             d="m 0,0 c -0.115,3.062 -1.063,5.486 -2.85,7.272 -1.786,1.786 -4.21,2.679 -7.272,2.679 -2.892,0 -5.274,-0.893 -7.145,-2.679 C -19.139,5.486 -20.329,3.062 -20.84,0 Z m -10.207,19.563 c 4.025,0 7.513,-0.637 10.462,-1.914 2.948,-1.276 5.359,-3.104 7.23,-5.486 1.871,-2.381 3.203,-5.26 3.998,-8.633 0.793,-3.375 1.048,-7.132 0.765,-11.271 h -32.832 c 0.793,-2.891 2.224,-5.146 4.295,-6.762 2.069,-1.616 4.578,-2.424 7.528,-2.424 4.478,0 8.336,1.616 11.568,4.848 l 6.889,-6.975 c -2.326,-2.551 -5.132,-4.536 -8.42,-5.954 -3.29,-1.418 -7.004,-2.126 -11.143,-2.126 -3.687,0 -6.989,0.553 -9.909,1.659 -2.922,1.105 -5.431,2.679 -7.528,4.72 -2.099,2.042 -3.7,4.494 -4.806,7.358 -1.106,2.863 -1.658,6.024 -1.658,9.484 0,3.515 0.566,6.72 1.701,9.612 1.133,2.891 2.749,5.358 4.848,7.399 2.097,2.042 4.579,3.629 7.443,4.764 2.863,1.134 6.052,1.701 9.569,1.701"
             style="fill:#373538;fill-opacity:1;fill-rule:nonzero;stroke:none"
             id="path38" /></g><g
           id="g40"
           transform="translate(255.0984,219.9331)"><path
             d="M 0,0 V -48.143 H -13.439 V 0 h -18.118 v 11.397 h 49.76 V 0 Z"
             style="fill:#373538;fill-opacity:1;fill-rule:nonzero;stroke:none"
             id="path42" /></g><g
           id="g44"
           transform="translate(305.709,218.0612)"><path
             d="m 0,0 c 2.552,0 4.876,-0.412 6.975,-1.233 2.097,-0.823 3.87,-1.999 5.316,-3.53 1.446,-1.532 2.565,-3.375 3.36,-5.529 0.793,-2.155 1.191,-4.565 1.191,-7.23 V -46.271 H 3.743 v 24.922 c 0,2.892 -0.795,5.174 -2.382,6.847 -1.588,1.671 -3.8,2.509 -6.635,2.509 -3.289,-0.057 -5.868,-1.177 -7.74,-3.36 -1.871,-2.183 -2.807,-4.975 -2.807,-8.378 v -22.54 H -28.92 v 63.113 h 13.099 V -8.591 c 1.644,2.892 3.798,5.032 6.464,6.422 C -6.692,-0.78 -3.572,-0.057 0,0"
             style="fill:#373538;fill-opacity:1;fill-rule:nonzero;stroke:none"
             id="path46" /></g><g
           id="g48"
           transform="translate(363.6332,198.4133)"><path
             d="m 0,0 c -0.115,3.062 -1.063,5.486 -2.85,7.272 -1.786,1.786 -4.21,2.679 -7.272,2.679 -2.892,0 -5.274,-0.893 -7.145,-2.679 C -19.139,5.486 -20.329,3.062 -20.84,0 Z m -10.207,19.563 c 4.025,0 7.513,-0.637 10.462,-1.914 2.948,-1.276 5.359,-3.104 7.23,-5.486 1.871,-2.381 3.203,-5.26 3.998,-8.633 0.793,-3.375 1.048,-7.132 0.765,-11.271 h -32.832 c 0.793,-2.891 2.224,-5.146 4.295,-6.762 2.069,-1.616 4.578,-2.424 7.528,-2.424 4.478,0 8.336,1.616 11.568,4.848 l 6.889,-6.975 c -2.325,-2.551 -5.132,-4.536 -8.42,-5.954 -3.29,-1.418 -7.004,-2.126 -11.143,-2.126 -3.687,0 -6.989,0.553 -9.909,1.659 -2.922,1.105 -5.431,2.679 -7.528,4.72 -2.099,2.042 -3.7,4.494 -4.806,7.358 -1.106,2.863 -1.658,6.024 -1.658,9.484 0,3.515 0.566,6.72 1.701,9.612 1.133,2.891 2.75,5.358 4.848,7.399 2.097,2.042 4.579,3.629 7.443,4.764 2.863,1.134 6.052,1.701 9.569,1.701"
             style="fill:#373538;fill-opacity:1;fill-rule:nonzero;stroke:none"
             id="path50" /></g><g
           id="g52"
           transform="translate(397.6551,209.3008)"><path
             d="M 0,0 C 3.232,5.726 8.279,8.646 15.141,8.76 V -3.573 C 12.815,-3.347 10.717,-3.475 8.846,-3.955 6.975,-4.438 5.387,-5.218 4.083,-6.295 2.778,-7.373 1.772,-8.691 1.063,-10.25 0.354,-11.81 0,-13.554 0,-15.481 v -22.03 H -13.099 V 8.25 H 0 Z"
             style="fill:#373538;fill-opacity:1;fill-rule:nonzero;stroke:none"
             id="path54" /></g><g
           id="g56"
           transform="translate(449.795,198.4133)"><path
             d="m 0,0 c -0.114,3.062 -1.063,5.486 -2.849,7.272 -1.786,1.786 -4.211,2.679 -7.273,2.679 -2.892,0 -5.274,-0.893 -7.145,-2.679 C -19.138,5.486 -20.329,3.062 -20.839,0 Z m -10.207,19.563 c 4.026,0 7.513,-0.637 10.462,-1.914 2.948,-1.276 5.359,-3.104 7.23,-5.486 1.871,-2.381 3.204,-5.26 3.998,-8.633 0.793,-3.375 1.049,-7.132 0.765,-11.271 h -32.832 c 0.794,-2.891 2.225,-5.146 4.296,-6.762 2.069,-1.616 4.578,-2.424 7.527,-2.424 4.479,0 8.336,1.616 11.568,4.848 l 6.89,-6.975 c -2.326,-2.551 -5.133,-4.536 -8.421,-5.954 -3.289,-1.418 -7.004,-2.126 -11.143,-2.126 -3.686,0 -6.989,0.553 -9.909,1.659 -2.921,1.105 -5.431,2.679 -7.528,4.72 -2.098,2.042 -3.7,4.494 -4.805,7.358 -1.106,2.863 -1.659,6.024 -1.659,9.484 0,3.515 0.566,6.72 1.701,9.612 1.134,2.891 2.75,5.358 4.848,7.399 2.098,2.042 4.579,3.629 7.443,4.764 2.863,1.134 6.053,1.701 9.569,1.701"
             style="fill:#373538;fill-opacity:1;fill-rule:nonzero;stroke:none"
             id="path58" /></g><g
           id="g60"
           transform="translate(504.9117,220.1882)"><path
             d="M 0,0 V -14.63 H 26.878 V -25.858 H 0 v -22.54 h -13.44 v 59.54 H 29.345 L 29.26,0 Z"
             style="fill:#373538;fill-opacity:1;fill-rule:nonzero;stroke:none"
             id="path62" /></g><g
           id="g64"
           transform="translate(562.4951,207.0891)"><path
             d="m 0,0 c -3.402,0 -6.154,-1.163 -8.251,-3.487 -2.098,-2.326 -3.147,-5.359 -3.147,-9.102 0,-3.742 1.049,-6.776 3.147,-9.101 2.097,-2.326 4.849,-3.487 8.251,-3.487 1.701,0 3.245,0.298 4.636,0.892 1.388,0.596 2.579,1.447 3.572,2.552 0.991,1.106 1.772,2.438 2.34,3.998 0.565,1.559 0.85,3.275 0.85,5.146 0,1.872 -0.285,3.573 -0.85,5.104 C 9.98,-5.954 9.199,-4.636 8.208,-3.53 7.215,-2.424 6.024,-1.561 4.636,-0.936 3.245,-0.312 1.701,0 0,0 m 0,10.887 c 3.628,0 6.96,-0.553 9.995,-1.658 3.032,-1.106 5.613,-2.68 7.74,-4.721 2.126,-2.041 3.785,-4.495 4.975,-7.357 1.192,-2.865 1.787,-6.054 1.787,-9.57 0,-3.516 -0.595,-6.706 -1.787,-9.569 -1.19,-2.864 -2.849,-5.316 -4.975,-7.358 -2.127,-2.041 -4.708,-3.629 -7.74,-4.763 -3.035,-1.134 -6.367,-1.7 -9.995,-1.7 -3.687,0 -7.032,0.566 -10.037,1.7 -3.006,1.134 -5.586,2.722 -7.741,4.763 -2.155,2.042 -3.827,4.494 -5.018,7.358 -1.191,2.863 -1.786,6.053 -1.786,9.569 0,3.516 0.595,6.705 1.786,9.57 1.191,2.862 2.863,5.316 5.018,7.357 2.155,2.041 4.735,3.615 7.741,4.721 3.005,1.105 6.35,1.658 10.037,1.658"
             style="fill:#373538;fill-opacity:1;fill-rule:nonzero;stroke:none"
             id="path66" /></g><g
           id="g68"
           transform="translate(608.7665,209.3008)"><path
             d="M 0,0 C 3.232,5.726 8.279,8.646 15.141,8.76 V -3.573 C 12.815,-3.347 10.717,-3.475 8.846,-3.955 6.975,-4.438 5.387,-5.218 4.083,-6.295 2.778,-7.373 1.771,-8.691 1.063,-10.25 0.353,-11.81 0,-13.554 0,-15.481 v -22.03 H -13.099 V 8.25 H 0 Z"
             style="fill:#373538;fill-opacity:1;fill-rule:nonzero;stroke:none"
             id="path70" /></g><g
           id="g72"
           transform="translate(680.4694,171.7897)"><path
             d="m 0,0 h -13.439 v 18.883 l -22.03,40.658 h 13.524 L -6.719,32.833 8.167,59.541 H 21.69 L 0,19.223 Z"
             style="fill:#373538;fill-opacity:1;fill-rule:nonzero;stroke:none"
             id="path74" /></g><g
           id="g76"
           transform="translate(723.7631,207.0891)"><path
             d="m 0,0 c -3.402,0 -6.153,-1.163 -8.25,-3.487 -2.099,-2.326 -3.147,-5.359 -3.147,-9.102 0,-3.742 1.048,-6.776 3.147,-9.101 2.097,-2.326 4.848,-3.487 8.25,-3.487 1.702,0 3.246,0.298 4.636,0.892 1.389,0.596 2.58,1.447 3.572,2.552 0.992,1.106 1.773,2.438 2.34,3.998 0.566,1.559 0.85,3.275 0.85,5.146 0,1.872 -0.284,3.573 -0.85,5.104 C 9.981,-5.954 9.2,-4.636 8.208,-3.53 7.216,-2.424 6.025,-1.561 4.636,-0.936 3.246,-0.312 1.702,0 0,0 m 0,10.887 c 3.629,0 6.961,-0.553 9.995,-1.658 3.033,-1.106 5.614,-2.68 7.74,-4.721 2.127,-2.041 3.786,-4.495 4.976,-7.357 1.191,-2.865 1.787,-6.054 1.787,-9.57 0,-3.516 -0.596,-6.706 -1.787,-9.569 -1.19,-2.864 -2.849,-5.316 -4.976,-7.358 -2.126,-2.041 -4.707,-3.629 -7.74,-4.763 -3.034,-1.134 -6.366,-1.7 -9.995,-1.7 -3.687,0 -7.032,0.566 -10.036,1.7 -3.007,1.134 -5.586,2.722 -7.741,4.763 -2.155,2.042 -3.827,4.494 -5.018,7.358 -1.191,2.863 -1.786,6.053 -1.786,9.569 0,3.516 0.595,6.705 1.786,9.57 1.191,2.862 2.863,5.316 5.018,7.357 2.155,2.041 4.734,3.615 7.741,4.721 3.004,1.105 6.349,1.658 10.036,1.658"
             style="fill:#373538;fill-opacity:1;fill-rule:nonzero;stroke:none"
             id="path78" /></g><g
           id="g80"
           transform="translate(800.4014,171.7897)"><path
             d="m 0,0 h -13.014 v 8.081 c -1.589,-2.892 -3.672,-5.048 -6.252,-6.465 -2.581,-1.418 -5.601,-2.126 -9.058,-2.126 -5.104,0 -9.132,1.559 -12.079,4.677 -2.949,3.118 -4.423,7.401 -4.423,12.845 v 28.749 h 13.098 V 20.755 c 0,-2.893 0.766,-5.161 2.298,-6.805 1.53,-1.646 3.628,-2.467 6.293,-2.467 3.176,0.055 5.657,1.177 7.443,3.36 1.787,2.182 2.68,4.947 2.68,8.293 v 22.625 l 13.014,0 z"
             style="fill:#373538;fill-opacity:1;fill-rule:nonzero;stroke:none"
             id="path82" /></g></g></g></g></svg>
